<svg width="618" height="767" viewBox="0 0 618 767" fill="none" xmlns="http://www.w3.org/2000/svg">
<path opacity="0.05" d="M617.256 0C616.65 8.13139 616.705 16.3731 615.309 24.3574C611.434 46.5071 606.402 68.2889 593.674 87.5136C587.669 96.5832 580.084 101.109 568.972 101.09C475.307 100.906 381.641 100.98 287.957 100.98C275.854 100.98 269.958 105.616 265.661 116.783C253.007 149.676 239.14 182.147 227.515 215.39C221.436 232.775 224.062 238.901 241.638 238.846C359.106 238.496 476.574 238.662 594.042 238.662C597.678 238.662 601.315 238.662 606.806 238.662C605.337 248.026 604.29 256.764 602.545 265.356C598.321 286.218 593.564 306.822 579.386 323.857C572.554 332.062 564.326 335.999 553.839 335.981C498.007 335.944 442.175 336.091 386.324 335.815C378.041 335.779 373.413 338.52 371.191 346.559C361.751 380.483 351.797 414.259 342.632 448.275C339.455 460.068 345.148 466.286 357.472 466.286C427.335 466.322 497.217 466.304 567.081 466.304C570.423 466.304 573.784 466.304 577.127 466.304C577.623 466.966 578.1 467.61 578.596 468.273C462.561 567.854 346.507 667.418 230.472 767C229.811 766.65 229.149 766.301 228.488 765.951C248.709 696.945 268.912 627.92 289.371 558.086C285.643 558.086 282.355 558.086 279.068 558.086C230.564 558.086 182.023 557.276 133.537 558.417C108.339 559.024 106.025 545.87 111.773 526.719C121.122 495.61 133.647 465.439 144.961 434.938C157.633 400.775 170.452 366.667 183.143 332.522C183.437 331.75 183.088 330.72 182.996 328.622C179.782 328.622 176.586 328.622 173.372 328.622C123.326 328.622 73.2971 328.585 23.2502 328.641C13.7367 328.659 5.72912 325.881 0.256104 317.603C0.256104 311.476 0.256104 305.369 0.256104 299.243C1.98249 294.625 3.89252 290.081 5.39851 285.39C21.9461 233.971 38.4571 182.533 54.9312 131.077C65.3997 98.4046 75.9601 65.7502 86.1164 32.9855C90.7813 17.9553 100.111 8.13137 115.098 3.66095C119.505 2.35477 123.968 1.21419 128.395 0C291.373 0 454.314 0 617.256 0Z" fill="#9C50FB"/>
</svg>
