<svg width="22" height="17" viewBox="0 0 22 17" fill="none" xmlns="http://www.w3.org/2000/svg">
<path id="Vector" fill-rule="evenodd" clip-rule="evenodd" d="M18.0917 0.151303C18.3524 0.285523 18.5506 0.520696 18.6428 0.805148C18.735 1.0896 18.7137 1.40006 18.5834 1.66831L17.292 4.32674C18.7463 5.36832 19.934 6.75625 20.7538 8.37211C21.5736 9.98797 22.0012 11.7838 22 13.6064V14.7376C22 15.3377 21.7682 15.9132 21.3556 16.3375C20.9431 16.7618 20.3835 17.0001 19.8 17.0001H2.2C1.61653 17.0001 1.05695 16.7618 0.644368 16.3375C0.231788 15.9132 3.28729e-06 15.3377 3.28729e-06 14.7376V13.6064C-0.00136766 11.7836 0.42609 9.98755 1.2459 8.37148C2.06571 6.75541 3.25353 5.3673 4.708 4.32561L3.4166 1.66831C3.34668 1.53496 3.30352 1.38853 3.28967 1.2377C3.27582 1.08687 3.29158 0.934715 3.336 0.790266C3.38042 0.645817 3.4526 0.512015 3.54826 0.3968C3.64391 0.281585 3.7611 0.187304 3.89286 0.119551C4.02463 0.0517983 4.16828 0.0119539 4.3153 0.00238219C4.46232 -0.00718951 4.60972 0.0137062 4.74873 0.0638301C4.88775 0.113954 5.01557 0.192285 5.12459 0.294174C5.23361 0.396064 5.32162 0.519436 5.3834 0.656971L6.6308 3.22151C8.00999 2.60762 9.49717 2.29187 11 2.29389C12.5521 2.29389 14.0305 2.62421 15.3692 3.22151L16.6166 0.656971C16.7471 0.388851 16.9758 0.184984 17.2524 0.0901668C17.529 -0.00465048 17.8309 0.0173389 18.0917 0.151303ZM6.05 9.08138C5.61239 9.08138 5.19271 9.26016 4.88328 9.57838C4.57384 9.89661 4.4 10.3282 4.4 10.7783C4.4 11.2283 4.57384 11.6599 4.88328 11.9781C5.19271 12.2964 5.61239 12.4751 6.05 12.4751C6.48761 12.4751 6.90729 12.2964 7.21673 11.9781C7.52616 11.6599 7.7 11.2283 7.7 10.7783C7.7 10.3282 7.52616 9.89661 7.21673 9.57838C6.90729 9.26016 6.48761 9.08138 6.05 9.08138ZM15.95 9.08138C15.5124 9.08138 15.0927 9.26016 14.7833 9.57838C14.4738 9.89661 14.3 10.3282 14.3 10.7783C14.3 11.2283 14.4738 11.6599 14.7833 11.9781C15.0927 12.2964 15.5124 12.4751 15.95 12.4751C16.3876 12.4751 16.8073 12.2964 17.1167 11.9781C17.4262 11.6599 17.6 11.2283 17.6 10.7783C17.6 10.3282 17.4262 9.89661 17.1167 9.57838C16.8073 9.26016 16.3876 9.08138 15.95 9.08138Z" fill="#070E1C"/>
</svg>
