<svg width="28" height="22" viewBox="0 0 28 22" fill="none" xmlns="http://www.w3.org/2000/svg">
<path d="M6.66602 6.00003L9.36477 8.25003C11.661 10.1625 12.8085 11.1188 14.166 11.1188C15.5235 11.1188 16.6723 10.1625 18.9673 8.24878L21.666 6.00003M1.66602 11C1.66602 6.28628 1.66602 3.92878 3.13102 2.46503C4.59477 1.00003 6.95227 1.00003 11.666 1.00003H16.666C21.3798 1.00003 23.7373 1.00003 25.201 2.46503C26.666 3.92878 26.666 6.28628 26.666 11C26.666 15.7138 26.666 18.0713 25.201 19.535C23.7373 21 21.3798 21 16.666 21H11.666C6.95227 21 4.59477 21 3.13102 19.535C1.66602 18.0713 1.66602 15.7138 1.66602 11Z" stroke="#F8F8F8" stroke-width="1.5" stroke-linecap="round"/>
</svg>
