<svg width="28" height="28" viewBox="0 0 28 28" fill="none" xmlns="http://www.w3.org/2000/svg">
<path d="M6.23897 11.3853V8.78778C6.23897 6.72107 7.05997 4.739 8.52135 3.27762C9.98273 1.81624 11.9648 0.995239 14.0315 0.995239C16.0982 0.995239 18.0803 1.81624 19.5417 3.27762C21.003 4.739 21.824 6.72107 21.824 8.78778V11.3853M1.04395 19.1778C1.04395 15.5049 1.04395 13.6672 2.18555 12.5269C3.32586 11.3853 5.1636 11.3853 8.83648 11.3853H19.2265C22.8994 11.3853 24.7372 11.3853 25.8775 12.5269C27.0191 13.6672 27.0191 15.5049 27.0191 19.1778C27.0191 22.8507 27.0191 24.6884 25.8775 25.8288C24.7372 26.9704 22.8994 26.9704 19.2265 26.9704H8.83648C5.1636 26.9704 3.32586 26.9704 2.18555 25.8288C1.04395 24.6884 1.04395 22.8507 1.04395 19.1778ZM16.629 19.1778C16.629 20.6124 15.4661 21.7753 14.0315 21.7753C12.5969 21.7753 11.434 20.6124 11.434 19.1778C11.434 17.7433 12.5969 16.5803 14.0315 16.5803C15.4661 16.5803 16.629 17.7433 16.629 19.1778Z" stroke="#F8F8F8" stroke-width="1.4611" stroke-linecap="round"/>
</svg>
