<svg width="33" height="42" viewBox="0 0 33 42" fill="none" xmlns="http://www.w3.org/2000/svg">
<path id="Vector" d="M32.2479 0.953979C32.2162 1.37902 32.2191 1.80982 32.1462 2.22717C31.9436 3.38496 31.6806 4.52352 31.0154 5.52842C30.7015 6.0025 30.3051 6.23906 29.7243 6.2381C24.8288 6.22848 19.9333 6.23233 15.0369 6.23233C14.4043 6.23233 14.0962 6.47466 13.8716 7.05836C13.2102 8.77775 12.4854 10.475 11.8778 12.2127C11.5601 13.1214 11.6974 13.4416 12.616 13.4387C18.7555 13.4205 24.8951 13.4291 31.0346 13.4291C31.2247 13.4291 31.4147 13.4291 31.7017 13.4291C31.6249 13.9186 31.5702 14.3754 31.479 14.8244C31.2583 15.9149 31.0096 16.9919 30.2686 17.8824C29.9115 18.3113 29.4815 18.5171 28.9334 18.5161C26.0153 18.5142 23.0972 18.5219 20.1781 18.5075C19.7452 18.5055 19.5033 18.6488 19.3871 19.069C18.8938 20.8423 18.3735 22.6078 17.8945 24.3859C17.7284 25.0023 18.026 25.3273 18.6701 25.3273C22.3216 25.3292 25.974 25.3283 29.6255 25.3283C29.8002 25.3283 29.9758 25.3283 30.1505 25.3283C30.1764 25.3629 30.2014 25.3965 30.2273 25.4311C24.1627 30.6364 18.097 35.8407 12.0324 41.046C11.9978 41.0277 11.9633 41.0094 11.9287 40.9912C12.9856 37.3841 14.0415 33.7761 15.1108 30.1258C14.9159 30.1258 14.7441 30.1258 14.5723 30.1258C12.0372 30.1258 9.50015 30.0835 6.96601 30.1431C5.64903 30.1748 5.52808 29.4873 5.82852 28.4862C6.31711 26.8601 6.97178 25.2831 7.56307 23.6887C8.22541 21.9029 8.89541 20.1201 9.5587 18.3353C9.57406 18.2949 9.55583 18.2411 9.55103 18.1315C9.38305 18.1315 9.21602 18.1315 9.04804 18.1315C6.43231 18.1315 3.81753 18.1295 1.2018 18.1324C0.70457 18.1334 0.286051 17.9882 0 17.5554C0 17.2352 0 16.916 0 16.5957C0.0902308 16.3544 0.190059 16.1169 0.268771 15.8716C1.13364 13.1839 1.9966 10.4952 2.85763 7.80555C3.40478 6.0977 3.95672 4.39082 4.48754 2.67817C4.73136 1.89252 5.21899 1.37902 6.00227 1.14534C6.23264 1.07707 6.4659 1.01745 6.69724 0.953979C15.2154 0.953979 23.7317 0.953979 32.2479 0.953979Z" fill="white"/>
</svg>
