<svg width="133" height="164" viewBox="0 0 133 164" fill="none" xmlns="http://www.w3.org/2000/svg">
<path id="Vector" d="M132.173 0C132.044 1.72812 132.055 3.4797 131.758 5.17654C130.933 9.88391 129.862 14.5131 127.151 18.5988C125.873 20.5263 124.258 21.4881 121.892 21.4842C101.947 21.4451 82.003 21.4608 62.0548 21.4608C59.4777 21.4608 58.2224 22.446 57.3073 24.8193C54.6128 31.8099 51.6603 38.7107 49.1848 45.7757C47.8904 49.4704 48.4497 50.7724 52.1922 50.7606C77.2047 50.6863 102.217 50.7215 127.23 50.7215C128.004 50.7215 128.778 50.7215 129.948 50.7215C129.635 52.7116 129.412 54.5688 129.04 56.3946C128.141 60.8283 127.128 65.2073 124.109 68.8277C122.654 70.5715 120.902 71.4082 118.669 71.4043C106.781 71.3964 94.8925 71.4277 83.0002 71.3691C81.2365 71.3613 80.251 71.9438 79.7779 73.6524C77.7678 80.862 75.6482 88.0404 73.6968 95.2696C73.0203 97.7757 74.2326 99.0972 76.8566 99.0972C91.7327 99.105 106.613 99.1011 121.489 99.1011C122.201 99.1011 122.916 99.1011 123.628 99.1011C123.734 99.2419 123.835 99.3787 123.941 99.5195C99.2334 120.683 74.5219 141.843 49.8144 163.006C49.6737 162.932 49.5329 162.858 49.3921 162.784C53.6977 148.118 57.9995 133.449 62.3559 118.607C61.5621 118.607 60.862 118.607 60.162 118.607C49.834 118.607 39.4982 118.435 29.174 118.677C23.8086 118.806 23.3159 116.011 24.5399 111.941C26.5304 105.329 29.1975 98.9174 31.6065 92.435C34.3048 85.1745 37.0344 77.9258 39.7367 70.6692C39.7993 70.505 39.725 70.2861 39.7054 69.8404C39.0211 69.8404 38.3406 69.8404 37.6562 69.8404C26.9997 69.8404 16.3471 69.8325 5.69058 69.8443C3.66486 69.8482 1.95981 69.2578 0.794434 67.4984C0.794434 66.1964 0.794434 64.8984 0.794434 63.5964C1.16203 62.6151 1.56874 61.6494 1.88941 60.6524C5.41291 49.7246 8.9286 38.7928 12.4365 27.8572C14.6655 20.9134 16.9141 13.9735 19.0767 7.01023C20.07 3.81594 22.0566 1.72812 25.2477 0.778042C26.1863 0.500448 27.1366 0.258045 28.0791 0C62.7822 0 97.4775 0 132.173 0Z" fill="white"/>
</svg>
