<svg width="29" height="40" viewBox="0 0 29 40" fill="none" xmlns="http://www.w3.org/2000/svg">
<path id="Vector" d="M14.2998 8.22V13.92M1 14.3C1 10.7726 2.40125 7.38971 4.89548 4.89548C7.38971 2.40125 10.7726 1 14.3 1C17.8274 1 21.2103 2.40125 23.7045 4.89548C26.1988 7.38971 27.6 10.7726 27.6 14.3V25.7C27.6 27.4466 27.256 29.1761 26.5876 30.7897C25.9192 32.4033 24.9395 33.8695 23.7045 35.1045C22.4695 36.3395 21.0033 37.3192 19.3897 37.9876C17.7761 38.656 16.0466 39 14.3 39C12.5534 39 10.8239 38.656 9.21031 37.9876C7.59668 37.3192 6.1305 36.3395 4.89548 35.1045C3.66046 33.8695 2.68079 32.4033 2.0124 30.7897C1.34401 29.1761 1 27.4466 1 25.7V14.3Z" stroke="#9C50FB" stroke-width="1.5" stroke-linecap="round"/>
</svg>
