<svg width="129" height="30" viewBox="0 0 129 30" fill="none" xmlns="http://www.w3.org/2000/svg">
<g id="Platforms" opacity="0.4">
<path id="Vector" d="M76 14.9996V14.9977C76 11.6811 74.5278 8.70823 72.2013 6.6979L72.1876 6.68599C70.5039 7.57968 68.9682 8.72775 67.6345 10.0897L67.6308 10.0934C67.6712 10.1355 67.7106 10.1713 67.7509 10.2144C71.16 13.8922 74.2648 19.1339 73.7514 21.6466C75.2143 19.7418 76.0047 17.4059 75.9991 15.0041V14.9986L76 14.9996ZM65.5418 7.62469C67.1553 6.57164 69.0046 5.93481 70.9244 5.77112L70.9684 5.76837C69.1944 4.60849 67.1195 3.99374 65 4.00005C63.0099 4.00005 61.1436 4.53082 59.5348 5.45852L59.588 5.4301C60.1912 5.94987 62.1886 6.14605 64.615 7.63019C64.755 7.71679 64.9165 7.76213 65.0811 7.761C65.2457 7.75986 65.4067 7.7123 65.5454 7.62377L65.5418 7.62561V7.62469ZM62.4022 10.2125C62.4443 10.1676 62.4874 10.13 62.5287 10.086C61.4493 9.04057 60.282 8.08981 59.0398 7.24426L58.9491 7.18559C58.7515 7.04121 58.5249 6.94144 58.285 6.89317C58.045 6.8449 57.7975 6.84927 57.5594 6.906L57.5713 6.90416C56.445 7.93204 55.5455 9.18371 54.9306 10.5791C54.3156 11.9745 53.9987 13.4829 54 15.0078C54 17.6745 54.9506 20.1193 56.5318 22.0215L56.5172 22.0032C55.5721 19.6683 58.7878 14.0535 62.4013 10.2125H62.4022ZM65.077 12.431C61.4452 15.6422 56.3898 20.4338 57.1643 22.7145C58.1847 23.7563 59.403 24.5837 60.7477 25.1479C62.0924 25.7121 63.5363 26.0018 64.9945 26C66.5164 26.0018 68.022 25.6862 69.415 25.0733C70.8081 24.4604 72.058 23.5637 73.085 22.4404L73.0923 22.4322C73.5378 20.0323 68.7336 15.7063 65.077 12.431Z" fill="#F8F8F8"/>
<g id="Vector_2">
<path d="M24.9844 11.6875C24.9344 10.6188 24.7781 9.53125 24.3094 8.55625C24.0523 8.01678 23.7033 7.52613 23.2781 7.10625C22.8795 6.71146 22.4321 6.36911 21.9469 6.0875C20.8781 5.45 19.6031 5.025 16.6719 4.15C13.7406 3.275 11.9987 3 11.9987 3V25.3937L16.9925 27C16.9925 27 16.9987 14.575 16.9987 8.28125V8.04375C16.9987 7.4625 17.4675 6.99375 18.005 6.99375H18.0362C18.5675 6.99375 19.005 7.4625 19.005 8.04375V16.375C19.6925 16.7063 20.83 16.9563 21.6175 16.9438C22.1401 16.9583 22.6573 16.8355 23.1175 16.5875C23.5924 16.3249 23.9893 15.941 24.2675 15.475C24.5779 14.9496 24.7877 14.371 24.8862 13.7688C25.0031 13.0938 25.0094 12.3875 24.9844 11.6875ZM5.41562 21.3625C7.12812 20.75 10.9969 19.5187 10.9969 19.5187V16.5688C10.9969 16.5688 6.21562 18.1188 4.04062 18.8875C3.50312 19.0813 2.95937 19.2563 2.43437 19.4813C1.82187 19.7375 1.22187 20.025 0.678123 20.4062C0.434177 20.5623 0.235812 20.7801 0.103123 21.0375C0.0409294 21.1698 0.00610259 21.3132 0.000732566 21.4593C-0.00463746 21.6054 0.01956 21.751 0.0718727 21.8875C0.196873 22.2063 0.434373 22.4688 0.703123 22.675C1.19062 23.0437 1.77187 23.2687 2.35312 23.4375C4.13369 24.0285 6.00247 24.3097 7.87812 24.2687C8.78437 24.2562 10.1281 24.15 11.0031 23.9937V21.3687C11.0031 21.3687 10.3156 21.525 8.42187 22.15C8.13437 22.2437 7.84687 22.3563 7.54687 22.4188C7.10284 22.5112 6.65042 22.5572 6.19687 22.5562C5.79062 22.5375 5.37187 22.5125 4.99062 22.3625C4.85312 22.3 4.70312 22.225 4.64687 22.075C4.59687 21.95 4.66562 21.825 4.75312 21.7375C4.92812 21.5562 5.17812 21.4562 5.41562 21.3625Z" fill="#F8F8F8"/>
<path d="M31.9987 20.6187C31.9925 20.2437 31.7675 19.9187 31.505 19.6812C31.0612 19.2875 30.5112 19.0375 29.9612 18.8375C29.6175 18.7188 29.38 18.6312 29.0425 18.525C27.4675 18.0125 25.7987 17.825 24.1487 17.8188C23.6487 17.8375 22.705 17.85 22.2112 17.9062C20.8425 18.0625 18.005 18.8687 18.005 18.8687V21.9188C18.005 21.9188 22.2237 20.5688 24.0362 19.9312C24.6476 19.7329 25.2873 19.6358 25.93 19.6437C26.3362 19.6562 26.755 19.6875 27.1425 19.8375C27.28 19.8937 27.4237 19.975 27.4862 20.1187C27.5425 20.2812 27.43 20.4312 27.305 20.525C27.0112 20.7625 26.6362 20.8562 26.2925 20.9875C23.73 21.8937 17.9987 23.7812 17.9987 23.7812V26.7188C17.9987 26.7188 25.3237 24.2438 28.6737 23.0438C29.23 22.8375 29.7925 22.6625 30.3237 22.3937C30.8175 22.1437 31.3112 21.8563 31.6862 21.4375C31.8871 21.212 31.9983 20.9207 31.9987 20.6187Z" fill="#F8F8F8"/>
</g>
<g id="Vector_3">
<path d="M125.25 16.25V25.5425C125.25 25.7943 125.199 26.0435 125.101 26.2753C125.002 26.5071 124.858 26.7166 124.677 26.8915C124.496 27.0664 124.281 27.203 124.046 27.2931C123.811 27.3833 123.56 27.4251 123.309 27.4163L123.142 27.4025L114 26.26V16.25H125.25ZM111.5 16.25V25.9475L104.94 25.1275C104.335 25.0519 103.779 24.7581 103.376 24.3011C102.972 23.8442 102.75 23.2557 102.75 22.6463V16.25H111.5ZM123.142 2.5975C123.392 2.56629 123.646 2.58572 123.888 2.65462C124.13 2.72353 124.356 2.84051 124.552 2.99858C124.748 3.15665 124.91 3.35257 125.029 3.57467C125.147 3.79676 125.22 4.04046 125.242 4.29125L125.25 4.4575V13.75H114V3.74L123.142 2.5975ZM111.5 4.0525V13.75H102.75V7.35375C102.75 6.7443 102.972 6.1558 103.376 5.69887C103.779 5.24194 104.335 4.94807 104.94 4.8725L111.5 4.0525Z" fill="#F8F8F8"/>
</g>
</g>
</svg>
