<svg width="19" height="20" viewBox="0 0 19 20" fill="none" xmlns="http://www.w3.org/2000/svg">
<path id="Vector" d="M18.12 11.0065V18.4901C18.12 18.6928 18.0792 18.8935 17.9999 19.0802C17.9207 19.2668 17.8046 19.4356 17.6587 19.5765C17.5128 19.7173 17.34 19.8273 17.1507 19.8999C16.9614 19.9725 16.7593 20.0062 16.5567 19.9991L16.4228 19.988L9.06002 19.0679V11.0065H18.12ZM7.04668 11.0065V18.8162L1.76368 18.1558C1.27666 18.095 0.828646 17.8583 0.50386 17.4903C0.179075 17.1224 -0.00010684 16.6484 4.7794e-08 16.1576V11.0065H7.04668ZM16.4228 0.0116472C16.624 -0.0134892 16.8282 0.0021566 17.0232 0.0576513C17.2183 0.113146 17.4001 0.207353 17.558 0.334652C17.7158 0.461952 17.8464 0.619736 17.9419 0.798593C18.0374 0.97745 18.096 1.17372 18.114 1.37568L18.12 1.50957V8.99315H9.06002V0.931742L16.4228 0.0116472ZM7.04668 1.18341V8.99315H4.7794e-08V3.84202C-0.00010684 3.35121 0.179075 2.87727 0.50386 2.50929C0.828646 2.14131 1.27666 1.90464 1.76368 1.84378L7.04668 1.18341Z" fill="#F8F8F8"/>
</svg>
